<?xml version="1.0" encoding="UTF-8" standalone="no"?>
<!DOCTYPE svg PUBLIC "-//W3C//DTD SVG 1.1//EN" "http://www.w3.org/Graphics/SVG/1.1/DTD/svg11.dtd">
<svg width="100%" height="100%" viewBox="0 0 382 294" version="1.1" xmlns="http://www.w3.org/2000/svg" xmlns:xlink="http://www.w3.org/1999/xlink" xml:space="preserve" xmlns:serif="http://www.serif.com/" style="fill-rule:evenodd;clip-rule:evenodd;stroke-linejoin:round;stroke-miterlimit:2;">
    <g id="layer101" transform="matrix(1,0,0,1,1,0)">
        <path d="M5.4,290C2.4,288.8 0,285.1 0,281.7C0,279.2 9.4,235.3 17,202.3L19.2,193L107.9,193C184.6,193 197.4,192.8 202.5,191.5C209.6,189.6 214.3,186.2 217,181.1C218.9,177.3 237,97.3 237,92.5C237,88.6 234.3,84.2 230.7,82.3C228,80.8 224.2,80.5 205,80.2L182.5,79.9L172.5,125.4L162.5,171L93.3,171C55.2,171 24,170.8 24,170.5C24,170.2 31.6,135.2 41,92.7C51.6,44.2 58.7,13.9 60.1,11.3C61.7,8.2 63.5,6.4 66.9,4.8L71.5,2.5L182.5,2.5C284.6,2.5 294.6,2.6 307,4.3C325.2,6.8 337.8,10.1 348.6,15.4C370.7,26 381.2,44 379.6,68.5C379.1,78 351.1,208 346.8,221C333.7,261.3 298.8,284 241.1,289.9C228.5,291.2 8.6,291.3 5.4,290Z" style="fill-rule:nonzero;"/>
    </g>
</svg>
