0
SECTION
2
HEADER
9
$INSUNITS
70
4
9
$ACADVER
1
AC1014
9
$HANDSEED
5
FFFF
0
ENDSEC
0
SECTION
2
TABLES
0
TABLE
2
VPORT
5
8
100
AcDbSymbolTable
0
ENDTAB
0
TABLE
2
LTYPE
5
5
100
AcDbSymbolTable
0
LTYPE
5
14
100
AcDbSymbolTableRecord
100
AcDbLinetypeTableRecord
2
BYBLOCK
70
0
0
LTYPE
5
15
100
AcDbSymbolTableRecord
100
AcDbLinetypeTableRecord
2
BYLAYER
70
0
0
LTYPE
5
16
100
AcDbSymbolTableRecord
100
AcDbLinetypeTableRecord
2
DASHED
70
0
3
Dashed __ __ __ __ __ __ __ __ __ __ __ __ __ _
72
65
73
2
40
0.75
49
0.5
74
0
49
-0.25
74
0
0
ENDTAB
0
TABLE
2
LAYER
5
2
100
AcDbSymbolTable
70
2
0
LAYER
5
50
100
AcDbSymbolTableRecord
100
AcDbLayerTableRecord
2
0
70
0
62
7
6
CONTINUOUS
0
ENDTAB
0
TABLE
2
STYLE
5
3
100
AcDbSymbolTable
70
1
0
STYLE
5
11
100
AcDbSymbolTableRecord
100
AcDbTextStyleTableRecord
2
STANDARD
70
0
0
ENDTAB
0
TABLE
2
VIEW
5
6
100
AcDbSymbolTable
70
0
0
ENDTAB
0
TABLE
2
UCS
5
7
100
AcDbSymbolTable
70
0
0
ENDTAB
0
TABLE
2
APPID
5
9
100
AcDbSymbolTable
70
2
0
APPID
5
12
100
AcDbSymbolTableRecord
100
AcDbRegAppTableRecord
2
ACAD
70
0
0
ENDTAB
0
TABLE
2
DIMSTYLE
5
A
100
AcDbSymbolTable
70
1
0
ENDTAB
0
TABLE
2
BLOCK_RECORD
5
1
100
AcDbSymbolTable
70
1
0
BLOCK_RECORD
5
1F
100
AcDbSymbolTableRecord
100
AcDbBlockTableRecord
2
*MODEL_SPACE
0
BLOCK_RECORD
5
1B
100
AcDbSymbolTableRecord
100
AcDbBlockTableRecord
2
*PAPER_SPACE
0
ENDTAB
0
ENDSEC
0
SECTION
2
BLOCKS
0
BLOCK
5
20
100
AcDbEntity
100
AcDbBlockBegin
2
*MODEL_SPACE
0
ENDBLK
5
21
100
AcDbEntity
100
AcDbBlockEnd
0
BLOCK
5
1C
100
AcDbEntity
100
AcDbBlockBegin
2
*PAPER_SPACE
0
ENDBLK
5
1D
100
AcDbEntity
100
AcDbBlockEnd
0
ENDSEC
0
SECTION
2
ENTITIES
0
ARC
5
100
100
AcDbEntity
8
0
100
AcDbCircle
10
-34.999999999998209
20
1055.8461828956579
30
0
40
99.999999999998153
210
0
220
0
230
1
100
AcDbArc
50
-18.965574988848644
51
0
0
LINE
5
101
100
AcDbEntity
8
0
100
AcDbLine
10
44.05881230117047
20
978.20626560049027
30
0
11
59.571401596888677
21
1023.3461828956583
31
0
0
ARC
5
102
100
AcDbEntity
8
0
100
AcDbCircle
10
654.99999999999784
20
1055.8461828956579
30
0
40
99.999999999997797
210
0
220
0
230
1
100
AcDbArc
50
180
51
198.96557498884889
0
LINE
5
103
100
AcDbEntity
8
0
100
AcDbLine
10
555.00000000000011
20
1055.8461828956583
30
0
11
554.99999999999989
21
1520
31
0
0
ARC
5
104
100
AcDbEntity
8
0
100
AcDbCircle
10
534.99999999999989
20
1520
30
0
40
20
210
0
220
-0
230
1
100
AcDbArc
50
0
51
90
0
LINE
5
105
100
AcDbEntity
8
0
100
AcDbLine
10
534.99999999999989
20
1540
30
0
11
85
21
1540
31
0
0
LINE
5
106
100
AcDbEntity
8
0
100
AcDbLine
10
575.94118769882971
20
978.20626560048947
30
0
11
560.42859840311144
21
1023.3461828956581
31
0
0
LINE
5
107
100
AcDbEntity
8
0
100
AcDbLine
10
724.14679072885735
20
1154.8308254541171
30
0
11
575.94118769882971
21
978.20626560048947
31
0
0
ARC
5
108
100
AcDbEntity
8
0
100
AcDbCircle
10
731.80723516004718
20
1148.4029493572516
30
0
40
9.9999999999999307
210
0
220
-0
230
1
100
AcDbArc
50
49.999999999999915
51
139.99999999999986
0
LINE
5
109
100
AcDbEntity
8
0
100
AcDbLine
10
814.83955556881028
20
1091.7846328197872
30
0
11
738.23511125691255
21
1156.0633937884413
31
0
0
ARC
5
110
100
AcDbEntity
8
0
100
AcDbCircle
10
808.41167947194492
20
1084.1241883885975
30
0
40
9.9999999999999307
210
-0
220
0
230
1
100
AcDbArc
50
-40.000000000000568
51
49.999999999999915
0
LINE
5
111
100
AcDbEntity
8
0
100
AcDbLine
10
816.07212390313464
20
1077.6963122917321
30
0
11
620
21
844.02665422259486
31
0
0
LINE
5
112
100
AcDbEntity
8
0
100
AcDbLine
10
620
20
286.68685922325
30
0
11
620
21
844.02665422259486
31
0
0
LINE
5
113
100
AcDbEntity
8
0
100
AcDbLine
10
816.07212390313452
20
53.017201154111802
30
0
11
620
21
286.68685922325
31
0
0
ARC
5
114
100
AcDbEntity
8
0
100
AcDbCircle
10
808.41167947194481
20
46.589325057246413
30
0
40
9.999999999999968
210
-0
220
0
230
1
100
AcDbArc
50
-50.000000000001016
51
40.000000000000227
0
LINE
5
115
100
AcDbEntity
8
0
100
AcDbLine
10
738.23511125691221
20
-25.349880342596684
30
0
11
814.83955556881006
21
38.928880626056525
31
0
0
ARC
5
116
100
AcDbEntity
8
0
100
AcDbCircle
10
731.80723516004696
20
-17.689435911406903
30
0
40
10.000000000000032
210
0
220
0
230
1
100
AcDbArc
50
219.99999999999918
51
309.99999999999937
0
LINE
5
117
100
AcDbEntity
8
0
100
AcDbLine
10
620
20
100
30
0
11
724.14679072885701
21
-24.117312008272251
31
0
0
LINE
5
118
100
AcDbEntity
8
0
100
AcDbLine
10
620
20
40
30
0
11
620
21
100
31
0
0
ARC
5
119
100
AcDbEntity
8
0
100
AcDbCircle
10
580
20
40
30
0
40
39.999999999999993
210
-0
220
0
230
1
100
AcDbArc
50
-90
51
0
0
LINE
5
120
100
AcDbEntity
8
0
100
AcDbLine
10
540
20
0
30
0
11
580
21
4.4408920985006262e-15
31
0
0
LINE
5
121
100
AcDbEntity
8
0
100
AcDbLine
10
540
20
0
30
0
11
540
21
-140
31
0
0
SPLINE
5
122
100
AcDbEntity
8
0
100
AcDbSpline
70
0
71
3
72
16
73
12
74
0
42
0.000000001
43
0.0000000001
44
0.0000000001
40
0
40
0
40
0
40
0
40
10.731637183531799
40
10.731637183531799
40
17.428843133994803
40
17.428843133994803
40
21.122457537977397
40
21.122457537977397
40
22.695635311795211
40
22.695635311795211
40
24.150124049557451
40
24.150124049557451
40
24.150124049557451
40
24.150124049557451
10
380
20
-220
30
0
10
415.77212394510593
20
-220
30
0
10
450.53140205549283
20
-214.00167314964673
30
0
10
496.26031833695288
20
-196.08455607636643
30
0
10
510.75366012670833
20
-187.43804019608996
30
0
10
527.021578224015
20
-172.15637197764971
30
0
10
532.12526720181938
20
-165.85092907212646
30
0
10
537.01980965342557
20
-155.68290649443395
30
0
10
538.16796855980203
20
-152.51575253473786
30
0
10
539.63603692595655
20
-146.19829792569988
30
0
10
540
20
-143.11554315925332
30
0
10
540
20
-140
30
0
0
LINE
5
123
100
AcDbEntity
8
0
100
AcDbLine
10
380
20
-220
30
0
11
280
21
-220
31
0
0
SPLINE
5
124
100
AcDbEntity
8
0
100
AcDbSpline
70
0
71
3
72
16
73
12
74
0
42
0.000000001
43
0.0000000001
44
0.0000000001
40
0
40
0
40
0
40
0
40
1.3255827421888522
40
1.3255827421888522
40
2.998206042426264
40
2.998206042426264
40
5.8668646562593025
40
5.8668646562593025
40
11.2692923482319
40
11.2692923482319
40
18.578622291536831
40
18.578622291536831
40
18.578622291536831
40
18.578622291536831
10
80.000000000000014
20
-140
30
0
10
80.000000000000014
20
-144.41860914062948
30
0
10
80.914691116002388
20
-148.69676591886733
30
0
10
84.668033649614216
20
-157.96374515676862
30
0
10
87.869937836482393
20
-162.65764734533582
30
0
10
97.948272642817642
20
-173.9824566036562
30
0
10
106.153251778601
20
-179.98943578927623
30
0
10
129.99903381843853
20
-194.06779780699321
30
0
10
150.2012000371185
20
-201.87093369804816
30
0
10
205.61926784328986
20
-215.77034013860299
30
0
10
242.37810626628215
20
-220
30
0
10
280
20
-220
30
0
0
LINE
5
125
100
AcDbEntity
8
0
100
AcDbLine
10
80.000000000000014
20
-140
30
0
11
80.000000000000014
21
0
31
0
0
LINE
5
126
100
AcDbEntity
8
0
100
AcDbLine
10
40
20
0
30
0
11
80.000000000000014
21
0
31
0
0
ARC
5
127
100
AcDbEntity
8
0
100
AcDbCircle
10
40
20
40
30
0
40
39.999999999999993
210
0
220
0
230
1
100
AcDbArc
50
180
51
270
0
LINE
5
128
100
AcDbEntity
8
0
100
AcDbLine
10
2.9002239162537205e-32
20
100
30
0
11
4.4408920985006262e-15
21
40.000000000000014
31
0
0
LINE
5
129
100
AcDbEntity
8
0
100
AcDbLine
10
2.9002239162537205e-32
20
100
30
0
11
-104.14679072885734
21
-24.117312008272958
31
0
0
ARC
5
130
100
AcDbEntity
8
0
100
AcDbCircle
10
-111.80723516004707
20
-17.689435911407532
30
0
40
9.9999999999999982
210
0
220
0
230
1
100
AcDbArc
50
229.99999999999994
51
319.99999999999966
0
LINE
5
131
100
AcDbEntity
8
0
100
AcDbLine
10
-118.23511125691248
20
-25.349880342597309
30
0
11
-194.83955556881023
21
38.928880626056468
31
0
0
ARC
5
132
100
AcDbEntity
8
0
100
AcDbCircle
10
-188.41167947194486
20
46.589325057246249
30
0
40
10.000000000000002
210
0
220
0
230
1
100
AcDbArc
50
140
51
230.00000000000017
0
LINE
5
133
100
AcDbEntity
8
0
100
AcDbLine
10
-196.07212390313464
20
53.017201154111639
30
0
11
0
21
286.68685922324977
31
0
0
LINE
5
134
100
AcDbEntity
8
0
100
AcDbLine
10
2.4478662885319757e-31
20
844.02665422259406
30
0
11
0
21
286.68685922324977
31
0
0
LINE
5
135
100
AcDbEntity
8
0
100
AcDbLine
10
-196.0721239031347
20
1077.6963122917321
30
0
11
2.4478662885319757e-31
21
844.02665422259406
31
0
0
ARC
5
136
100
AcDbEntity
8
0
100
AcDbCircle
10
-188.41167947194489
20
1084.1241883885975
30
0
40
9.9999999999999769
210
0
220
0
230
1
100
AcDbArc
50
130.00000000000034
51
220.00000000000026
0
LINE
5
137
100
AcDbEntity
8
0
100
AcDbLine
10
-194.83955556881031
20
1091.7846328197872
30
0
11
-118.23511125691243
21
1156.0633937884409
31
0
0
ARC
5
138
100
AcDbEntity
8
0
100
AcDbCircle
10
-111.80723516004704
20
1148.4029493572511
30
0
40
9.9999999999999982
210
0
220
-0
230
1
100
AcDbArc
50
39.999999999999282
51
130.00000000000023
0
LINE
5
139
100
AcDbEntity
8
0
100
AcDbLine
10
-104.14679072885724
20
1154.8308254541164
30
0
11
44.05881230117047
21
978.20626560049027
31
0
0
LINE
5
140
100
AcDbEntity
8
0
100
AcDbLine
10
65
20
1520
30
0
11
64.999999999999943
21
1055.8461828956583
31
0
0
ARC
5
141
100
AcDbEntity
8
0
100
AcDbCircle
10
85
20
1520
30
0
40
20
210
0
220
-0
230
1
100
AcDbArc
50
90
51
180
0
ENDSEC
0
SECTION
2
OBJECTS
0
DICTIONARY
5
C
100
AcDbDictionary
3
ACAD_GROUP
350
D
3
ACAD_MLINESTYLE
350
17
0
DICTIONARY
5
D
100
AcDbDictionary
0
DICTIONARY
5
1A
330
C
100
AcDbDictionary
0
DICTIONARY
5
17
100
AcDbDictionary
0
ENDSEC
0
EOF
