<?xml version="1.0" encoding="utf-8"?>
<!-- Generator: Fusion 360, Shaper Origin Export Add-In, Version 1.8.0  -->
<svg xmlns="http://www.w3.org/2000/svg" xmlns:xlink="http://www.w3.org/1999/xlink" xmlns:shaper="http://www.shapertools.com/namespaces/shaper" shaper:fusionaddin="version:1.8.0" width="176cm" height="101.6823359cm" version="1.1" x="0cm" y="0cm" viewBox="0 0 176 101.6823359" enable-background="new 0 0 176 101.6823359" xml:space="preserve"><path d="M36.3346183,-25.0428598 A10,10 108.965575 0,0 39.5846183,-24.5 L86,-24.5 A2,2 270 0,1 88,-22.5 L88,22.5 A2,2 0 0,1 86,24.5 L39.5846183,24.5 A10,10 270 0,0 36.3346183,25.0428598 L31.8206266,26.5941188 49.4830825,41.4146791 A1,1 310 0,1 49.6063394,42.8235111 L43.1784633,50.4839556 A1,1 40 0,1 41.7696312,50.6072124 L18.4026654,31 -37.3313141,31 -60.6982799,50.6072124 A1,1 50 0,1 -62.1071119,50.4839556 L-68.534988,42.8235111 A1,1 140 0,1 -68.4117312,41.4146791 L-56,31 -62,31 A4,4 90 0,1 -66,27 L-66,23 -80,23 -80,23 -80.0724458,22.9991803 -80.144635,22.9967324 -80.2165636,22.9926729 -80.2882277,22.9870187 -80.3596232,22.9797864 -80.4307462,22.9709928 -80.5015926,22.9606546 -80.5721585,22.9487886 -80.6424399,22.9354114 -80.7124328,22.9205399 -80.7821332,22.9041906 -80.851537,22.8863805 -80.9206404,22.8671262 -80.9894394,22.8464444 -81.0579298,22.8243518 -81.1261078,22.8008653 -81.1939693,22.7760015 -81.2615105,22.7497771 -81.32867,22.7222335 -81.3952979,22.6934567 -81.4613841,22.6634793 -81.5269266,22.6323304 -81.5919229,22.6000395 -81.6563707,22.5666357 -81.7202678,22.5321484 -81.7836119,22.4966069 -81.8464006,22.4600405 -81.9086317,22.4224785 -81.9703029,22.3839503 -82.0314118,22.344485 -82.0919562,22.304112 -82.1519338,22.2628607 -82.2113423,22.2207603 -82.2701793,22.1778401 -82.3284426,22.1341294 -82.3861299,22.0896576 -82.4432389,22.0444538 -82.4997673,21.9985475 -82.5557127,21.951968 -82.611073,21.9047445 -82.6658457,21.8569063 -82.7200642,21.8084515 -82.7738352,21.7593088 -82.8271661,21.7094891 -82.8800573,21.6590096 -82.9325089,21.6078875 -82.9845212,21.5561402 -83.0360945,21.5037847 -83.0872288,21.4508384 -83.1379244,21.3973184 -83.1881816,21.343242 -83.2380006,21.2886265 -83.2873815,21.233489 -83.3363247,21.1778467 -83.3848302,21.121717 -83.4328985,21.0651169 -83.4805296,21.0080638 -83.5277237,20.9505749 -83.6208022,20.8343585 -83.7121356,20.7166055 -83.8017257,20.5974536 -83.8895743,20.4770409 -83.9756831,20.3555049 -84.0600539,20.2329836 -84.1426883,20.1096147 -84.2235883,19.9855362 -84.3027554,19.8608857 -84.3801916,19.735801 -84.4558985,19.6104201 -84.5300662,19.4845572 -84.603528,19.3568659 -84.6763775,19.2271943 -84.7486088,19.0955571 -84.8202161,18.9619692 -84.8911936,18.8264455 -84.9615353,18.6890009 -85.0312353,18.5496501 -85.100288,18.4084082 -85.1686873,18.2652898 -85.2364274,18.1203098 -85.3035025,17.9734832 -85.3699067,17.8248248 -85.4356342,17.6743494 -85.500679,17.5220718 -85.5650354,17.368007 -85.6286974,17.2121698 -85.6916593,17.054575 -85.7539151,16.8952375 -85.8154589,16.7341721 -85.8762851,16.5713938 -85.9363876,16.4069173 -85.9957606,16.2407575 -86.0543982,16.0729293 -86.1122947,15.9034475 -86.1694441,15.732327 -86.2258406,15.5595825 -86.2814783,15.3852291 -86.3363514,15.2092815 -86.3904539,15.0317546 -86.4437801,14.8526633 -86.4963241,14.6720223 -86.54808,14.4898466 -86.599042,14.306151 -86.6492042,14.1209504 -86.6985608,13.9342596 -86.7471058,13.7460934 -86.794829,13.5564857 -86.8416757,13.3656669 -86.8876291,13.1737162 -86.9326872,12.9806524 -86.9768477,12.7864945 -87.0201084,12.5912615 -87.0624672,12.3949723 -87.1039218,12.1976457 -87.14447,11.9993008 -87.1841097,11.7999565 -87.2228387,11.5996317 -87.2606548,11.3983453 -87.2975557,11.1961163 -87.3335393,10.9929636 -87.3686034,10.7889062 -87.4027457,10.5839629 -87.4359642,10.3781528 -87.4682566,10.1714947 -87.4996206,9.9640076 -87.5300542,9.7557104 -87.5595551,9.546622 -87.5881211,9.3367615 -87.6157501,9.1261476 -87.6424398,8.9147994 -87.668188,8.7027358 -87.6929926,8.4899758 -87.7168513,8.2765381 -87.7397619,8.0624419 -87.7617224,7.847706 -87.7827304,7.6323493 -87.8027837,7.4163908 -87.8218803,7.1998495 -87.8400178,6.9827442 -87.8571942,6.7650939 -87.8734071,6.5469175 -87.8886544,6.328234 -87.9029339,6.1090623 -87.9162435,5.8894213 -87.9285808,5.66933 -87.9399438,5.4488073 -87.9503302,5.2278721 -87.9597378,5.0065434 -87.9681645,4.7848401 -87.975608,4.5627811 -87.9820662,4.3403854 -87.9875368,4.1176719 -87.9920177,3.8946595 -87.9955067,3.6713672 -87.9980015,3.4478139 -87.9995,3.2240185 -88,3 -88,-7 -88,-7 -87.9994443,-7.1885759 -87.9977794,-7.3769457 -87.9950083,-7.5650913 -87.9911342,-7.7529943 -87.9861603,-7.9406366 -87.9800897,-8.1279999 -87.9729255,-8.3150661 -87.9646709,-8.5018169 -87.9553291,-8.688234 -87.9449031,-8.8742993 -87.9333962,-9.0599945 -87.9208114,-9.2453014 -87.907152,-9.4302018 -87.892421,-9.6146774 -87.8766216,-9.7987101 -87.8597569,-9.9822816 -87.8418302,-10.1653736 -87.8228445,-10.347968 -87.8028029,-10.5300466 -87.7817087,-10.711591 -87.7595649,-10.8925832 -87.7363748,-11.0730048 -87.7121414,-11.2528376 -87.6868679,-11.4320635 -87.6605575,-11.6106641 -87.6332132,-11.7886214 -87.6048383,-11.9659169 -87.5754359,-12.1425326 -87.5450091,-12.3184502 -87.513561,-12.4936514 -87.4810949,-12.6681181 -87.4476138,-12.8418321 -87.4131209,-13.014775 -87.3776193,-13.1869287 -87.3411123,-13.3582749 -87.3036029,-13.5287955 -87.2650942,-13.6984722 -87.2255895,-13.8672868 -87.1850918,-14.035221 -87.1436044,-14.2022567 -87.1011303,-14.3683755 -87.0576727,-14.5335594 -87.0132347,-14.69779 -86.9678195,-14.8610492 -86.9214303,-15.0233187 -86.8740701,-15.1845802 -86.8257422,-15.3448157 -86.7764496,-15.5040067 -86.7261955,-15.6621352 -86.6749831,-15.8191829 -86.6228154,-15.9751316 -86.5696957,-16.129963 -86.5156271,-16.2836589 -86.4606128,-16.4362012 -86.4046558,-16.5875715 -86.3477593,-16.7377517 -86.2899271,-16.8867217 -86.2312209,-17.0343184 -86.1716841,-17.1804352 -86.1113243,-17.3250596 -86.050149,-17.4681792 -85.9881657,-17.6097814 -85.9253819,-17.7498538 -85.861805,-17.888384 -85.7974426,-18.0253594 -85.7323022,-18.1607676 -85.6663912,-18.2945961 -85.5997172,-18.4268325 -85.5322876,-18.5574642 -85.4641099,-18.6864789 -85.3951917,-18.8138639 -85.3255404,-18.9396069 -85.2551636,-19.0636954 -85.1840686,-19.1861169 -85.1122631,-19.3068589 -85.0397545,-19.425909 -84.9665503,-19.5432546 -84.892658,-19.6588834 -84.8180851,-19.7727828 -84.742839,-19.8849404 -84.6669274,-19.9953437 -84.5903576,-20.1039803 -84.5131373,-20.2108375 -84.4352738,-20.3159031 -84.3567746,-20.4191645 -84.2776473,-20.5206092 -84.1978994,-20.6202248 -84.1175383,-20.7179987 -84.0365716,-20.8139186 -83.9550067,-20.9079719 -83.8728511,-21.0001463 -83.7901124,-21.0904291 -83.7066432,-21.1789698 -83.6218654,-21.2663376 -83.5357266,-21.3525135 -83.4482306,-21.4374181 -83.3593814,-21.5209721 -83.2691827,-21.6030962 -83.1776383,-21.683711 -83.0847522,-21.7627371 -82.990528,-21.8400953 -82.8949698,-21.9157063 -82.7980811,-21.9894906 -82.699866,-22.0613689 -82.6502622,-22.0965686 -82.6003282,-22.131262 -82.5500645,-22.1654392 -82.4994715,-22.1990904 -82.4485499,-22.2322056 -82.3972999,-22.2647749 -82.3457221,-22.2967883 -82.293817,-22.328236 -82.2415851,-22.3591081 -82.1890268,-22.3893945 -82.1361426,-22.4190855 -82.0829331,-22.4481711 -82.0293986,-22.4766413 -81.9755396,-22.5044863 -81.9213567,-22.5316961 -81.8668505,-22.5582607 -81.8120467,-22.584157 -81.7569645,-22.6093659 -81.7016058,-22.6338785 -81.6459725,-22.6576852 -81.5900664,-22.6807771 -81.5338895,-22.7031446 -81.4774437,-22.7247787 -81.4207308,-22.7456701 -81.3637527,-22.7658095 -81.3065114,-22.7851876 -81.2490086,-22.8037953 -81.1912463,-22.8216232 -81.1332264,-22.838662 -81.0749507,-22.8549027 -81.0164212,-22.8703358 -80.9576398,-22.8849522 -80.8986194,-22.89874 -80.8394577,-22.91167 -80.7801786,-22.9237334 -80.7207847,-22.9349264 -80.6612785,-22.9452453 -80.6016624,-22.9546863 -80.5419389,-22.9632458 -80.4821104,-22.9709201 -80.4221794,-22.9777054 -80.3621484,-22.983598 -80.3020198,-22.9885943 -80.2417962,-22.9926904 -80.1814799,-22.9958828 -80.1210735,-22.9981677 -80.0605793,-22.9995413 -80,-23 -66,-23 -66,-27 A4,4 180 0,1 -62,-31 L-56,-31 -68.4117312,-41.4146791 A1,1 130 0,1 -68.534988,-42.8235111 L-62.1071119,-50.4839556 A1,1 220 0,1 -60.6982799,-50.6072124 L-37.3313141,-31 18.4026654,-31 41.7696312,-50.6072124 A1,1 230 0,1 43.1784633,-50.4839556 L49.6063394,-42.8235111 A1,1 320 0,1 49.4830825,-41.4146791 L31.8206266,-26.5941188 36.3346183,-25.0428598z" transform="matrix(1,0,0,-1,88,50.8411679)" fill="rgb(0,0,0)" shaper:cutDepth="5cm" stroke-linecap="round" stroke-linejoin="round" /></svg>