<!DOCTYPE svg PUBLIC "-//W3C//DTD SVG 20010904//EN" "http://www.w3.org/TR/2001/REC-SVG-20010904/DTD/svg10.dtd">
<svg version="1.0" xmlns="http://www.w3.org/2000/svg" width="1595px" height="501px" viewBox="0 0 15950 5010" preserveAspectRatio="xMidYMid meet">
<g id="layer101" fill="#000000" stroke="none">
 <path d="M249 4480 c-43 -4 -109 -17 -148 -29 -71 -22 -71 -22 -71 -57 0 -28 3 -35 15 -30 155 59 394 66 488 14 59 -34 82 -70 81 -129 0 -40 -6 -55 -30 -80 -41 -44 -67 -55 -216 -95 -257 -68 -318 -115 -318 -245 0 -98 48 -154 162 -191 84 -28 271 -28 373 -1 l70 18 3 39 c3 34 1 38 -15 32 -110 -43 -313 -55 -395 -23 -63 24 -98 67 -98 118 0 92 48 127 250 179 214 54 285 99 310 192 13 46 6 118 -15 159 -52 99 -228 150 -446 129z"/>
 <path d="M5044 4479 c-102 -12 -179 -44 -230 -94 -69 -70 -74 -98 -74 -452 l0 -303 50 0 50 0 0 305 c0 337 2 350 62 412 48 49 114 68 243 68 127 0 181 -13 231 -57 69 -61 69 -58 72 -410 l3 -318 45 0 45 0 -3 328 c-3 296 -5 330 -22 362 -30 58 -87 109 -143 130 -47 17 -201 42 -243 39 -8 -1 -47 -5 -86 -10z"/>
 <path d="M14895 4479 c-44 -5 -110 -18 -147 -29 -67 -20 -68 -21 -68 -56 0 -30 3 -35 18 -29 94 36 269 57 372 44 153 -19 233 -111 185 -213 -25 -52 -77 -78 -247 -125 -243 -67 -299 -108 -306 -226 -7 -108 47 -173 174 -211 80 -24 262 -23 359 3 l70 18 3 39 c3 34 1 38 -15 32 -66 -26 -150 -40 -248 -40 -92 0 -118 3 -157 21 -79 36 -110 117 -71 183 25 42 92 73 245 113 150 40 219 70 259 114 88 95 51 261 -70 322 -76 38 -221 55 -356 40z"/>
 <path d="M11528 4464 c-110 -26 -187 -77 -241 -157 -49 -72 -67 -141 -67 -258 0 -255 127 -394 393 -429 95 -13 232 -2 308 25 149 53 235 161 260 328 36 246 -86 438 -312 492 -80 18 -263 18 -341 -1z m338 -75 c85 -32 134 -75 174 -153 34 -67 35 -72 35 -185 0 -107 -2 -121 -29 -179 -50 -108 -129 -162 -270 -184 -130 -20 -266 13 -353 86 -75 63 -115 209 -94 344 20 132 75 212 176 258 103 47 255 53 361 13z"/>
 <path d="M1650 4050 l0 -420 50 0 50 0 0 420 0 420 -50 0 -50 0 0 -420z"/>
 <path d="M2740 4050 l0 -420 76 0 75 0 48 103 c27 56 108 221 180 366 l131 264 180 -367 180 -366 75 0 75 0 0 420 0 420 -50 0 -50 0 0 -367 0 -368 -182 368 -182 367 -48 0 -48 0 -179 -357 -180 -358 0 358 -1 357 -50 0 -50 0 0 -420z"/>
 <path d="M6520 4050 l0 -420 50 0 50 0 0 385 0 385 270 0 270 0 0 35 0 35 -320 0 -320 0 0 -420z"/>
 <path d="M7960 4460 c0 -6 92 -195 205 -420 l205 -410 53 1 52 0 203 412 c111 227 203 415 202 420 0 4 -22 7 -50 7 l-50 0 -65 -130 -65 -130 -236 0 -236 0 -61 130 -62 130 -47 0 c-27 0 -48 -5 -48 -10z m650 -324 c0 -2 -43 -93 -96 -203 l-96 -198 -98 195 c-55 107 -99 198 -99 203 -1 4 87 7 194 7 107 0 195 -2 195 -4z"/>
 <path d="M9930 4080 l0 -390 -185 0 -185 0 0 -30 0 -30 415 0 415 0 0 30 0 30 -180 0 -180 0 0 390 0 390 -50 0 -50 0 0 -390z"/>
 <path d="M13110 4049 l0 -421 238 4 c216 3 242 6 293 26 55 22 105 65 130 112 18 36 16 148 -4 186 -30 58 -102 105 -181 120 l-34 6 154 189 c85 104 154 191 154 194 0 3 -26 5 -57 5 l-58 0 -148 -185 -148 -185 -120 0 -119 0 0 185 0 185 -50 0 -50 0 0 -421z m491 -51 c108 -64 106 -214 -3 -270 -49 -25 -138 -38 -275 -38 l-113 0 0 171 0 171 173 -4 c166 -3 174 -4 218 -30z"/>
 <path d="M5330 3003 c-286 -27 -413 -48 -560 -95 -265 -84 -406 -206 -446 -384 -32 -146 -24 -200 155 -1009 89 -401 171 -759 183 -795 57 -177 148 -305 289 -410 187 -139 471 -232 840 -276 280 -32 861 -35 1114 -4 535 64 809 226 856 504 23 137 26 119 -217 1220 -117 529 -142 617 -211 736 -52 89 -170 205 -273 268 -204 125 -520 209 -913 241 -114 10 -728 13 -817 4z m836 -797 c71 -22 131 -68 154 -119 11 -23 74 -292 141 -599 l122 -556 -20 -38 c-22 -44 -66 -69 -143 -84 -73 -14 -357 -14 -444 0 -104 17 -180 60 -213 123 -8 16 -70 281 -138 589 -131 597 -131 594 -84 644 22 23 86 49 144 58 17 2 120 3 230 1 151 -2 213 -6 251 -19z"/>
 <path d="M8234 2940 c-30 -12 -54 -49 -54 -83 0 -56 579 -2661 601 -2704 16 -31 34 -49 68 -65 46 -23 47 -23 526 -23 451 0 482 1 518 19 21 10 49 33 62 50 13 17 99 191 190 386 92 195 172 361 177 368 6 7 34 12 69 12 l58 0 140 -152 c76 -84 228 -252 337 -373 110 -120 218 -234 242 -252 75 -57 82 -58 602 -58 461 0 476 1 510 20 67 40 81 -40 -240 1414 -160 728 -296 1335 -301 1350 -6 14 -20 37 -32 50 -47 50 -52 51 -557 51 -558 0 -540 3 -540 -103 0 -22 68 -349 151 -725 83 -376 149 -685 147 -687 -2 -2 -90 94 -197 213 -107 119 -212 231 -235 249 -74 59 -117 68 -336 68 -185 0 -197 -1 -243 -24 -62 -30 -74 -50 -188 -303 -52 -114 -96 -208 -99 -208 -3 0 -68 285 -144 633 -182 827 -173 792 -204 829 -49 58 -49 58 -549 57 -252 0 -468 -4 -479 -9z"/>
 <path d="M12725 2939 c-34 -19 -45 -41 -45 -88 0 -48 560 -2608 586 -2679 23 -61 68 -91 152 -103 41 -6 542 -8 1258 -7 1178 3 1189 3 1224 23 61 36 60 54 -8 363 -33 150 -69 287 -79 304 -10 18 -34 41 -53 53 -34 19 -53 20 -774 25 l-740 5 -26 120 c-15 66 -30 132 -33 147 l-7 28 512 0 c325 0 527 4 550 11 40 11 68 48 68 91 -1 49 -108 508 -126 538 -10 18 -32 42 -47 54 -28 21 -37 21 -571 24 l-543 2 -32 148 c-18 81 -35 157 -38 170 l-5 22 721 0 c771 0 774 0 800 48 19 35 13 79 -49 352 -60 269 -70 294 -124 334 -27 21 -32 21 -1289 23 -903 2 -1268 -1 -1282 -8z"/>
 <path d="M54 2900 c-30 -12 -54 -49 -54 -83 0 -25 94 -464 170 -794 l22 -93 887 0 c767 0 895 -2 946 -15 71 -19 118 -53 145 -104 19 -38 200 -838 200 -886 0 -39 -27 -83 -63 -102 -27 -15 -65 -18 -257 -21 l-225 -3 -100 455 -100 456 -692 0 c-381 0 -693 -2 -693 -5 0 -3 76 -353 170 -778 106 -485 177 -788 191 -814 16 -31 34 -49 68 -65 l46 -23 1110 0 c1021 0 1121 1 1245 18 182 25 308 58 416 111 221 106 326 286 310 531 -5 95 -285 1395 -328 1525 -131 403 -480 630 -1057 689 -126 13 -2325 14 -2357 1z"/>
 </g>

</svg>

